<svg id="Capa_1" enable-background="new 0 0 512 512" height="512" viewBox="0 0 512 512" width="512" xmlns="http://www.w3.org/2000/svg"><g><path d="m126.57 15v172.57h129.43l10-86.285-10-86.285z" fill="#9f5f4b"/><path d="m256 15h129.43v172.57h-129.43z" fill="#724435"/><path d="m400.43 262.93-144.43 249.07h-144.43v-249.07z" fill="#f27bb5"/><path d="m256 262.93h144.43v249.07h-144.43z" fill="#ec3c93"/><path d="m350.43 262.93-94.43 199.07h-94.43v-199.07z" fill="#ec3c93"/><path d="m256 262.93h94.43v199.07h-94.43z" fill="#bc008b"/><g><path d="m227.86 172.57v-56.28h28.14l10-15.005-10-14.995h-28.14v-56.29h28.14l10-15-10-15h-144.43v202.57l144.43 15 10-30-10-15zm-30 0h-56.29v-56.28h56.29zm0-86.28h-56.29v-56.29h56.29z" fill="#724435"/><path d="m256 0v30h28.14v56.29h-28.14v30h28.14v56.28h-28.14v45l144.43-15v-202.57zm114.43 172.57h-56.29v-56.28h56.29zm0-86.28h-56.29v-56.29h56.29z" fill="#4f2f25"/></g><path d="m81.57 232.57v126.92h15c17.37 0 25.49 2.85 34.89 6.15 10.47 3.68 22.34 7.85 44.82 7.85 22.49 0 34.36-4.17 44.83-7.85 9.4-3.3 17.51-6.15 34.89-6.15l20-71.403-20-70.517z" fill="#fff5f5"/><path d="m430.43 232.57v126.92h-15c-17.37 0-25.49 2.85-34.89 6.15-10.47 3.68-22.34 7.85-44.83 7.85s-34.36-4.17-44.83-7.85c-9.4-3.3-17.51-6.15-34.88-6.15v-141.92z" fill="#ece6f2"/><path d="m81.57 202.57v30h174.43l10-15-10-15z" fill="#ece6f2"/><path d="m256 202.57h174.43v30h-174.43z" fill="#cfcfe6"/></g></svg>